<?xml version="1.0" encoding="UTF-8"?>
<svg xmlns="http://www.w3.org/2000/svg" viewBox="55 450 975 190">
  <defs><style>.cls-1{fill:#fff}</style></defs>
  <path class="cls-1" d="M248.11,625.35l-38.26-66.58c-4.94-8.6-12.93-14.96-21.61-17.73,8.68-2.78,16.66-9.13,21.6-17.73l38.26-66.58c1.02-1.79-.21-4.06-2.2-4.06h-63.65c-.9,0-1.74.49-2.2,1.3l-23.29,40.54c-1.85,3.23-3.11,6.49-4.02,9.72-.92-3.24-2.17-6.5-4.03-9.72l-23.29-40.54c-.46-.81-1.3-1.3-2.2-1.3h-63.65c-2,0-3.22,2.27-2.2,4.06l38.26,66.58c4.94,8.6,12.93,14.96,21.61,17.73-8.68,2.78-16.66,9.13-21.6,17.73l-38.26,66.58c-1.02,1.79.21,4.06,2.2,4.06h63.65c.9,0,1.74-.49,2.2-1.3l23.29-40.54c1.85-3.23,3.11-6.49,4.02-9.72.92,3.24,2.17,6.5,4.03,9.72l23.29,40.54c.46.81,1.3,1.3,2.2,1.3h63.65c1.99,0,3.22-2.27,2.2-4.06ZM152.74,558.74c-2.49-8.33-8.3-14.92-16.76-17.71,8.45-2.8,14.26-9.38,16.75-17.71,2.49,8.33,8.3,14.92,16.76,17.71-8.45,2.8-14.26,9.38-16.75,17.71Z"/>
  <g>
    <path class="cls-1" d="M343.88,516.77c-4.35-5.34-10.94-8.02-19.78-8.02-10.98,0-19.35,3.85-25.12,11.55s-8.73,19.03-8.87,33.99v51.74h-13.9v-106.9h12.83v28.86l-2.35-2.99c2.71-9.41,7.34-16.6,13.9-21.59,6.55-4.99,14.75-7.48,24.59-7.48,8.12,0,15.14,1.64,21.06,4.92,5.91,3.28,10.44,8.05,13.58,14.32,3.13,6.27,4.7,13.76,4.7,22.45v68.42h-14.11v-64.57c0-11.12-2.17-19.35-6.52-24.69Z"/>
    <path class="cls-1" d="M397.86,602.29c-7.56-4.63-13.36-11.22-17.42-19.78-4.06-8.55-6.09-18.46-6.09-29.72s2.03-21.2,6.09-29.82c4.06-8.62,9.83-15.29,17.32-19.99,7.48-4.7,16.21-7.06,26.19-7.06s19.1,2.5,26.51,7.48c7.41,4.99,12.9,12.08,16.46,21.27,3.56,9.19,4.7,19.92,3.42,32.18h-86.8l5.34-8.12c-.72,14.54,2.06,26.12,8.34,34.74,6.27,8.63,15.32,12.93,27.15,12.93,8.55,0,15.32-1.99,20.31-5.99,4.99-3.99,8.26-8.55,9.83-13.68h14.32c-1.85,6.27-4.7,11.83-8.55,16.68-3.85,4.85-8.8,8.7-14.86,11.55-6.06,2.85-13.08,4.28-21.06,4.28-10.12,0-18.96-2.32-26.51-6.95ZM383.96,544.03h76.54l-5.56,6.63c1.42-7.13,1.14-13.93-.86-20.42-2-6.48-5.67-11.69-11.01-15.61-5.34-3.92-12.01-5.88-19.99-5.88-6.99,0-13.08,1.82-18.28,5.45-5.2,3.63-9.16,8.73-11.87,15.29-2.71,6.56-3.99,14.04-3.85,22.45l-5.13-7.91Z"/>
    <path class="cls-1" d="M505.4,551.51c0-1.85-.72-3.85-2.14-5.99l-33.14-46.39h16.25l29.72,41.9h.86l29.72-41.9h16.25l-33.14,46.39c-1.43,2-2.14,3.96-2.14,5.88s.71,3.96,2.14,6.09l34.85,48.53h-16.25l-31.43-43.4h-.86l-31.43,43.4h-16.25l34.85-48.53c1.42-2.14,2.14-4.13,2.14-5.99Z"/>
    <path class="cls-1" d="M572.53,477.54c-3.14-2.99-4.7-6.7-4.7-11.12,0-2.85.71-5.49,2.14-7.91,1.42-2.42,3.42-4.35,5.99-5.77,2.57-1.42,5.35-2.14,8.34-2.14,4.84,0,8.87,1.53,12.08,4.6,3.21,3.07,4.81,6.81,4.81,11.22s-1.6,8.12-4.81,11.12c-3.21,2.99-7.24,4.49-12.08,4.49s-8.63-1.5-11.76-4.49ZM570.6,497.85h27.37v108.18h-27.37v-108.18Z"/>
    <path class="cls-1" d="M616.57,600.04c-6.84-6.27-10.26-14.39-10.26-24.37s3.24-17.21,9.73-22.98c6.48-5.77,15.85-9.16,28.11-10.16l25.23-1.71c2.71-.28,4.74-1.1,6.09-2.46s2.03-3.53,2.03-6.52c0-4.99-1.82-8.8-5.45-11.44-3.63-2.64-8.66-3.96-15.07-3.96s-11.87,1.43-15.5,4.28c-3.63,2.85-5.74,6.84-6.31,11.97h-26.51c1.28-12.26,6.06-21.7,14.32-28.33,8.26-6.63,19.74-9.94,34.42-9.94s26.72,3.63,34.85,10.9c8.12,7.27,12.19,18.1,12.19,32.5v45.11h8.77v23.09h-10.9c-6.84,0-12.01-1.89-15.5-5.67-3.49-3.78-5.24-9.3-5.24-16.57v-10.48l3.85,1.5c-2,11.55-6.63,20.2-13.9,25.98-7.27,5.77-16.32,8.66-27.15,8.66-11.69,0-20.95-3.14-27.79-9.41ZM664.25,584.43c4.28-2.28,7.59-5.38,9.94-9.3,2.35-3.92,3.53-8.3,3.53-13.15v-4.28l-27.79,2.14c-5.56.57-9.66,2.07-12.29,4.49-2.64,2.43-3.96,5.63-3.96,9.62,0,4.42,1.42,7.84,4.28,10.26,2.85,2.43,6.84,3.63,11.97,3.63s10.05-1.14,14.32-3.42Z"/>
    <path class="cls-1" d="M774.35,601.43c-2.85-3.06-4.28-7.23-4.28-12.51v-132.55h13.9v136.83h8.55v12.83h-6.41c-4.99,0-8.91-1.53-11.76-4.6Z"/>
    <path class="cls-1" d="M807.7,600.04c-6.56-6.13-9.83-14.04-9.83-23.73s3.24-16.85,9.73-22.34c6.48-5.49,15.93-8.66,28.33-9.51l28.65-1.92c2.71-.28,4.63-1.14,5.77-2.57,1.14-1.42,1.71-3.92,1.71-7.48,0-8.26-2.6-14.29-7.8-18.07-5.2-3.78-11.87-5.67-19.99-5.67s-15.15,2-20.2,5.99c-5.06,3.99-8.09,9.76-9.09,17.32h-13.68c1.71-11.97,6.34-20.99,13.9-27.05,7.55-6.06,17.46-9.09,29.72-9.09,13.11,0,23.34,3.53,30.68,10.58,7.34,7.06,11.01,18,11.01,32.82v53.88h8.55v12.83h-6.41c-4.56,0-8.2-1.5-10.9-4.49-2.71-2.99-4.06-7.2-4.06-12.61v-13.47l2.14,3.63c-2.71,9.27-7.59,16.61-14.65,22.02-7.06,5.42-15.93,8.12-26.62,8.12-11.4,0-20.38-3.07-26.94-9.19ZM854.74,591.7c5.56-3.13,9.94-7.62,13.15-13.47,3.21-5.84,4.81-12.83,4.81-20.95v-3.42l-36.13,2.14c-8.55.57-14.72,2.46-18.49,5.67-3.78,3.21-5.67,7.95-5.67,14.22,0,6.99,2.06,12.15,6.2,15.5,4.13,3.35,9.83,5.02,17.1,5.02s13.47-1.57,19.03-4.7Z"/>
    <path class="cls-1" d="M932.03,601.43c-7.06-5.2-12.22-12.65-15.5-22.34l2.57-3.21v30.15h-12.83v-149.66h13.9v70.77l-2.78-3.42c3.42-8.98,8.59-15.85,15.5-20.63,6.91-4.77,15.21-7.16,24.91-7.16s17.92,2.35,25.12,7.06c7.2,4.7,12.75,11.33,16.68,19.88,3.92,8.55,5.88,18.46,5.88,29.72s-1.96,21.17-5.88,29.72c-3.92,8.55-9.48,15.18-16.68,19.88-7.2,4.7-15.57,7.06-25.12,7.06-10.12,0-18.71-2.6-25.76-7.8ZM974.68,590.95c5.27-3.63,9.3-8.73,12.08-15.29,2.78-6.55,4.17-14.25,4.17-23.09,0-13.26-3.1-23.87-9.3-31.86-6.2-7.98-14.65-11.97-25.33-11.97-7.13,0-13.4,1.82-18.81,5.45-5.42,3.63-9.66,8.77-12.72,15.39-3.07,6.63-4.6,14.29-4.6,22.98s1.53,16.36,4.6,22.98c3.06,6.63,7.3,11.76,12.72,15.39,5.41,3.63,11.68,5.45,18.81,5.45s13.11-1.82,18.39-5.45Z"/>
  </g>
  <path class="cls-1" d="M1005.57,493.77c-2.59-8.66-8.63-15.51-17.43-18.42,8.79-2.91,14.82-9.76,17.42-18.41,2.59,8.66,8.63,15.51,17.43,18.42-8.79,2.91-14.82,9.76-17.42,18.41Z"/>
</svg>
